G04 #@! TF.GenerationSoftware,KiCad,Pcbnew,(5.0.2)-1*
G04 #@! TF.CreationDate,2021-01-16T20:26:32+09:00*
G04 #@! TF.ProjectId,AllegroCurrentSensor,416c6c65-6772-46f4-9375-7272656e7453,rev?*
G04 #@! TF.SameCoordinates,Original*
G04 #@! TF.FileFunction,Soldermask,Bot*
G04 #@! TF.FilePolarity,Negative*
%FSLAX46Y46*%
G04 Gerber Fmt 4.6, Leading zero omitted, Abs format (unit mm)*
G04 Created by KiCad (PCBNEW (5.0.2)-1) date 2021/01/16 20:26:32*
%MOMM*%
%LPD*%
G01*
G04 APERTURE LIST*
%ADD10C,0.100000*%
G04 APERTURE END LIST*
D10*
G36*
X63966703Y-64961486D02*
X64257883Y-65082097D01*
X64519944Y-65257201D01*
X64742799Y-65480056D01*
X64917903Y-65742117D01*
X65038514Y-66033297D01*
X65100000Y-66342412D01*
X65100000Y-66657588D01*
X65038514Y-66966703D01*
X64917903Y-67257883D01*
X64742799Y-67519944D01*
X64519944Y-67742799D01*
X64257883Y-67917903D01*
X63966703Y-68038514D01*
X63657588Y-68100000D01*
X63342412Y-68100000D01*
X63033297Y-68038514D01*
X62742117Y-67917903D01*
X62480056Y-67742799D01*
X62257201Y-67519944D01*
X62082097Y-67257883D01*
X61961486Y-66966703D01*
X61900000Y-66657588D01*
X61900000Y-66342412D01*
X61961486Y-66033297D01*
X62082097Y-65742117D01*
X62257201Y-65480056D01*
X62480056Y-65257201D01*
X62742117Y-65082097D01*
X63033297Y-64961486D01*
X63342412Y-64900000D01*
X63657588Y-64900000D01*
X63966703Y-64961486D01*
X63966703Y-64961486D01*
G37*
G36*
X96966703Y-64961486D02*
X97257883Y-65082097D01*
X97519944Y-65257201D01*
X97742799Y-65480056D01*
X97917903Y-65742117D01*
X98038514Y-66033297D01*
X98100000Y-66342412D01*
X98100000Y-66657588D01*
X98038514Y-66966703D01*
X97917903Y-67257883D01*
X97742799Y-67519944D01*
X97519944Y-67742799D01*
X97257883Y-67917903D01*
X96966703Y-68038514D01*
X96657588Y-68100000D01*
X96342412Y-68100000D01*
X96033297Y-68038514D01*
X95742117Y-67917903D01*
X95480056Y-67742799D01*
X95257201Y-67519944D01*
X95082097Y-67257883D01*
X94961486Y-66966703D01*
X94900000Y-66657588D01*
X94900000Y-66342412D01*
X94961486Y-66033297D01*
X95082097Y-65742117D01*
X95257201Y-65480056D01*
X95480056Y-65257201D01*
X95742117Y-65082097D01*
X96033297Y-64961486D01*
X96342412Y-64900000D01*
X96657588Y-64900000D01*
X96966703Y-64961486D01*
X96966703Y-64961486D01*
G37*
G36*
X73954183Y-60326900D02*
X74081574Y-60379668D01*
X74196224Y-60456274D01*
X74293726Y-60553776D01*
X74370332Y-60668426D01*
X74423100Y-60795817D01*
X74450000Y-60931055D01*
X74450000Y-61068945D01*
X74423100Y-61204183D01*
X74370332Y-61331574D01*
X74293725Y-61446225D01*
X74196225Y-61543725D01*
X74081574Y-61620332D01*
X73954183Y-61673100D01*
X73818945Y-61700000D01*
X73681055Y-61700000D01*
X73545817Y-61673100D01*
X73418426Y-61620332D01*
X73303775Y-61543725D01*
X73206275Y-61446225D01*
X73129668Y-61331574D01*
X73076900Y-61204183D01*
X73050000Y-61068945D01*
X73050000Y-60931055D01*
X73076900Y-60795817D01*
X73129668Y-60668426D01*
X73206274Y-60553776D01*
X73303776Y-60456274D01*
X73418426Y-60379668D01*
X73545817Y-60326900D01*
X73681055Y-60300000D01*
X73818945Y-60300000D01*
X73954183Y-60326900D01*
X73954183Y-60326900D01*
G37*
G36*
X97954183Y-59826900D02*
X98081574Y-59879668D01*
X98196225Y-59956275D01*
X98293725Y-60053775D01*
X98370332Y-60168426D01*
X98423100Y-60295817D01*
X98450000Y-60431055D01*
X98450000Y-60568945D01*
X98423100Y-60704183D01*
X98370332Y-60831574D01*
X98293726Y-60946224D01*
X98196224Y-61043726D01*
X98081574Y-61120332D01*
X97954183Y-61173100D01*
X97818945Y-61200000D01*
X97681055Y-61200000D01*
X97545817Y-61173100D01*
X97418426Y-61120332D01*
X97303776Y-61043726D01*
X97206274Y-60946224D01*
X97129668Y-60831574D01*
X97076900Y-60704183D01*
X97050000Y-60568945D01*
X97050000Y-60431055D01*
X97076900Y-60295817D01*
X97129668Y-60168426D01*
X97206275Y-60053775D01*
X97303775Y-59956275D01*
X97418426Y-59879668D01*
X97545817Y-59826900D01*
X97681055Y-59800000D01*
X97818945Y-59800000D01*
X97954183Y-59826900D01*
X97954183Y-59826900D01*
G37*
G36*
X98416630Y-52492299D02*
X98576855Y-52540903D01*
X98724520Y-52619831D01*
X98853949Y-52726051D01*
X98960169Y-52855480D01*
X99039097Y-53003145D01*
X99087701Y-53163370D01*
X99104112Y-53330000D01*
X99087701Y-53496630D01*
X99039097Y-53656855D01*
X98960169Y-53804520D01*
X98853949Y-53933949D01*
X98724520Y-54040169D01*
X98576855Y-54119097D01*
X98416630Y-54167701D01*
X98291752Y-54180000D01*
X98208248Y-54180000D01*
X98083370Y-54167701D01*
X97923145Y-54119097D01*
X97775480Y-54040169D01*
X97646051Y-53933949D01*
X97539831Y-53804520D01*
X97460903Y-53656855D01*
X97412299Y-53496630D01*
X97395888Y-53330000D01*
X97412299Y-53163370D01*
X97460903Y-53003145D01*
X97539831Y-52855480D01*
X97646051Y-52726051D01*
X97775480Y-52619831D01*
X97923145Y-52540903D01*
X98083370Y-52492299D01*
X98208248Y-52480000D01*
X98291752Y-52480000D01*
X98416630Y-52492299D01*
X98416630Y-52492299D01*
G37*
G36*
X98416630Y-49952299D02*
X98576855Y-50000903D01*
X98724520Y-50079831D01*
X98853949Y-50186051D01*
X98960169Y-50315480D01*
X99039097Y-50463145D01*
X99087701Y-50623370D01*
X99104112Y-50790000D01*
X99087701Y-50956630D01*
X99039097Y-51116855D01*
X98960169Y-51264520D01*
X98853949Y-51393949D01*
X98724520Y-51500169D01*
X98576855Y-51579097D01*
X98416630Y-51627701D01*
X98291752Y-51640000D01*
X98208248Y-51640000D01*
X98083370Y-51627701D01*
X97923145Y-51579097D01*
X97775480Y-51500169D01*
X97646051Y-51393949D01*
X97539831Y-51264520D01*
X97460903Y-51116855D01*
X97412299Y-50956630D01*
X97395888Y-50790000D01*
X97412299Y-50623370D01*
X97460903Y-50463145D01*
X97539831Y-50315480D01*
X97646051Y-50186051D01*
X97775480Y-50079831D01*
X97923145Y-50000903D01*
X98083370Y-49952299D01*
X98208248Y-49940000D01*
X98291752Y-49940000D01*
X98416630Y-49952299D01*
X98416630Y-49952299D01*
G37*
G36*
X99100000Y-49100000D02*
X97400000Y-49100000D01*
X97400000Y-47400000D01*
X99100000Y-47400000D01*
X99100000Y-49100000D01*
X99100000Y-49100000D01*
G37*
G36*
X98204183Y-41076900D02*
X98331574Y-41129668D01*
X98446225Y-41206275D01*
X98543725Y-41303775D01*
X98620332Y-41418426D01*
X98673100Y-41545817D01*
X98700000Y-41681055D01*
X98700000Y-41818945D01*
X98673100Y-41954183D01*
X98620332Y-42081574D01*
X98543725Y-42196225D01*
X98446225Y-42293725D01*
X98331574Y-42370332D01*
X98204183Y-42423100D01*
X98068945Y-42450000D01*
X97931055Y-42450000D01*
X97795817Y-42423100D01*
X97668426Y-42370332D01*
X97553775Y-42293725D01*
X97456275Y-42196225D01*
X97379668Y-42081574D01*
X97326900Y-41954183D01*
X97300000Y-41818945D01*
X97300000Y-41681055D01*
X97326900Y-41545817D01*
X97379668Y-41418426D01*
X97456275Y-41303775D01*
X97553775Y-41206275D01*
X97668426Y-41129668D01*
X97795817Y-41076900D01*
X97931055Y-41050000D01*
X98068945Y-41050000D01*
X98204183Y-41076900D01*
X98204183Y-41076900D01*
G37*
G36*
X63966703Y-31961486D02*
X64257883Y-32082097D01*
X64519944Y-32257201D01*
X64742799Y-32480056D01*
X64917903Y-32742117D01*
X65038514Y-33033297D01*
X65100000Y-33342412D01*
X65100000Y-33657588D01*
X65038514Y-33966703D01*
X64917903Y-34257883D01*
X64742799Y-34519944D01*
X64519944Y-34742799D01*
X64257883Y-34917903D01*
X63966703Y-35038514D01*
X63657588Y-35100000D01*
X63342412Y-35100000D01*
X63033297Y-35038514D01*
X62742117Y-34917903D01*
X62480056Y-34742799D01*
X62257201Y-34519944D01*
X62082097Y-34257883D01*
X61961486Y-33966703D01*
X61900000Y-33657588D01*
X61900000Y-33342412D01*
X61961486Y-33033297D01*
X62082097Y-32742117D01*
X62257201Y-32480056D01*
X62480056Y-32257201D01*
X62742117Y-32082097D01*
X63033297Y-31961486D01*
X63342412Y-31900000D01*
X63657588Y-31900000D01*
X63966703Y-31961486D01*
X63966703Y-31961486D01*
G37*
G36*
X96966703Y-31961486D02*
X97257883Y-32082097D01*
X97519944Y-32257201D01*
X97742799Y-32480056D01*
X97917903Y-32742117D01*
X98038514Y-33033297D01*
X98100000Y-33342412D01*
X98100000Y-33657588D01*
X98038514Y-33966703D01*
X97917903Y-34257883D01*
X97742799Y-34519944D01*
X97519944Y-34742799D01*
X97257883Y-34917903D01*
X96966703Y-35038514D01*
X96657588Y-35100000D01*
X96342412Y-35100000D01*
X96033297Y-35038514D01*
X95742117Y-34917903D01*
X95480056Y-34742799D01*
X95257201Y-34519944D01*
X95082097Y-34257883D01*
X94961486Y-33966703D01*
X94900000Y-33657588D01*
X94900000Y-33342412D01*
X94961486Y-33033297D01*
X95082097Y-32742117D01*
X95257201Y-32480056D01*
X95480056Y-32257201D01*
X95742117Y-32082097D01*
X96033297Y-31961486D01*
X96342412Y-31900000D01*
X96657588Y-31900000D01*
X96966703Y-31961486D01*
X96966703Y-31961486D01*
G37*
M02*
